<svg version="1.1" viewBox="0 0 1024 1024" xmlns="http://www.w3.org/2000/svg"><path d="M0 507.39a506.37 506.37 0 1 0 1012.74 0 506.37 506.37 0 0 0-1012.74 0z" fill="#FCD356" p-id="0"></path><path d="M629.76 418.5l103.49 0.19a67.52 67.52 0 0 1 67.39 67.52c-0.13 160.9-0.13 306.43-0.13 436.41-89.47 53.5-140.86 72.58-205.69 85.12-38.59 5.31-76.54 13.18-151.56 5.32-114.24-12.03-124.35-31.3-228.92-89.92 0-133.12-0.77-278.78-2.44-437.06a67.52 67.52 0 0 1 66.82-68.16h0.77l103.55 0.19v-129.92c0-12.42 10.11-22.53 22.53-22.53h201.6c12.42 0 22.53 10.11 22.53 22.53v130.31z m-192.64-118.34a11.26 11.26 0 0 0-11.33 11.26v92.61c0 6.14 5.12 11.2 11.27 11.27h138.62c6.21 0 11.26-5.12 11.26-11.27v-92.54a11.26 11.26 0 0 0-11.26-11.27h-138.56z" fill="#FFEFD7" p-id="1"></path><path d="M449.98 293.76l112.64-0.38a22.4 22.4 0 0 1 22.53 22.4v0.06l-0.13 78.72a22.59 22.59 0 0 1-22.52 22.4h-0.07l-112.19-0.83a22.4 22.4 0 0 1-22.27-22.4l-0.45-77.31a22.59 22.59 0 0 1 22.46-22.6z" fill="#FBB276" p-id="2"></path><path d="M391.23 587.39c0-12.42 10.11-22.53 22.53-22.53h12.61c12.42 0 22.53 10.11 22.53 22.53v277.25a22.53 22.53 0 0 1-22.53 22.53h-12.61a22.53 22.53 0 0 1-22.53-22.53v-277.25z m172.67 0c0-12.42 10.05-22.53 22.47-22.53h12.61c12.42 0 22.53 10.11 22.52 22.53v277.25a22.53 22.53 0 0 1-22.52 22.53h-12.61a22.53 22.53 0 0 1-22.47-22.53v-277.25z" fill="#F57F23" p-id="3"></path></svg>