<svg version="1.1" viewBox="0 0 1024 1024" xmlns="http://www.w3.org/2000/svg"><path d="M806.2 433.77l5.37 0.3 5.22 1.03a39.37 39.37 0 0 1 29.29 37.53l-0.31 5.32-41.26 333.72-0.41 2.46-0.26 1.13-0.97 9.73c-11.26 83.61-93.7 103.07-146.64 104.44h-281.7c-52.48 0-140.9-17.61-152.58-104.44l-1.02-9.73-0.26-1.13a34 34 0 0 1-0.41-2.46l-41.26-333.72a39.37 39.37 0 0 1 28.97-42.85l5.28-1.03a39.32 39.32 0 0 1 43.83 34.26l38.65 318.67 3.18 8.19c14.34 34.15 36.97 52.58 67.78 55.19l7.84 0.31h275.71l7.88-0.31c28.21-2.41 49.56-18.07 64-46.95l3.74-8.19 3.18-8.19 38.65-318.67a39.37 39.37 0 0 1 38.51-34.61z m-195.33 62.46a39.42 39.42 0 0 1 39.37 39.42v157.5a39.42 39.42 0 1 1-78.75 0v-157.5a39.42 39.42 0 0 1 39.38-39.42z m-196.92 0a39.42 39.42 0 0 1 39.37 39.42v157.5a39.42 39.42 0 1 1-78.79 0v-157.5a39.42 39.42 0 0 1 39.42-39.42z m433.21-196.91a39.42 39.42 0 1 1 0 78.79h-669.5a39.42 39.42 0 1 1 0-78.79h669.55z m-145.41-196.92c37.43 0 66.66 29.9 66.66 65.64v29.85c0 19.76-18.59 35.79-39.27 35.79s-39.42-16.03-39.42-35.84v-17h-354.1v17.05c0 19.76-18.59 35.84-39.33 35.84-20.68 0-39.83-16.08-39.83-35.84v-29.85c0-35.74 29.18-65.64 66.56-65.64h378.83z" fill="#FFFFFF" p-id="0"></path></svg>