<svg version="1.1" viewBox="0 0 1024 1024" xmlns="http://www.w3.org/2000/svg"><path d="M447.38 971.78c0 50.08 28.14 47.98 62.81 47.98 34.67 0 62.75 2.1 62.75-47.98 0-50.02-28.08-429.25-62.75-429.25-34.67 0-62.82 379.23-62.81 429.25" fill="#DDB185" p-id="0"></path><path d="M869.92 815.54c-112.16-194.19-224.16-388.3-336.32-582.52-10.19-17.63-36.77-17.63-46.94 0-112 194.21-224.16 388.32-336.32 582.52-10.32 17.82 2.74 40.88 23.47 40.88h672.64c20.69 0 33.79-23.06 23.45-40.88" fill="#0B7D70" p-id="1"></path><path d="M869.92 700.88c-112.16-167.81-224.16-335.57-336.32-503.38-10.19-15.22-36.77-15.22-46.94 0-112 167.81-224.16 335.55-336.32 503.38-10.32 15.41 2.74 35.31 23.47 35.31h672.64c20.69 0 33.79-19.9 23.45-35.31" fill="#2BB573" p-id="2"></path><path d="M787.2 524.05c-87.41-154.9-174.83-309.76-262.19-464.64-7.97-14.03-28.67-14.03-36.59 0-87.36 154.88-174.83 309.74-262.2 464.64-8.03 14.24 2.14 32.66 18.29 32.65h524.34c16.16 0 26.35-18.42 18.35-32.65" fill="#0B7D70" p-id="3"></path><path d="M800.96 399.07l-271.79-390.21c-8.26-11.82-29.7-11.82-37.97 0-90.64 130.06-181.2 260.13-271.79 390.21-8.38 11.95 2.26 27.42 18.96 27.43h543.61c16.7 0 27.31-15.47 18.98-27.43" fill="#04A69C" p-id="4"></path></svg>