<?xml version="1.0" standalone="no"?><!DOCTYPE svg PUBLIC "-//W3C//DTD SVG 1.1//EN" "http://www.w3.org/Graphics/SVG/1.1/DTD/svg11.dtd">
<svg t="1662309317141" class="icon" viewBox="0 0 1024 1024" version="1.1"
    xmlns="http://www.w3.org/2000/svg" p-id="17374"
    xmlns:xlink="http://www.w3.org/1999/xlink" width="200" height="200">
    <path d="M661.333333 426.666667a192 192 0 1 1 0 384 192 192 0 0 1 0-384z m0 42.666666a149.333333 149.333333 0 1 0 0 298.666667 149.333333 149.333333 0 0 0 0-298.666667z m128-256c11.776 0 21.333333 9.813333 21.333334 21.930667v202.410667a234.581333 234.581333 0 0 0-42.624-27.989334L768 257.194667H256v286.848l135.637333-139.349334a20.906667 20.906667 0 0 1 30.165334 0l60.544 62.208c-9.472 11.178667-17.92 23.253333-25.216 36.096l-50.432-51.84L256 606.037333v89.6h183.594667c5.333333 15.36 12.245333 30.08 20.48 43.818667H234.666667c-11.776 0-21.333333-9.813333-21.333334-21.930667V235.264C213.333333 223.146667 222.890667 213.333333 234.666667 213.333333h554.666666z m-40.362666 347.904a21.333333 21.333333 0 0 1 2.432 27.178667l-2.432 2.986667-91.605334 91.562666a21.333333 21.333333 0 0 1-27.221333 2.474667l-2.944-2.474667-48.896-48.896a21.333333 21.333333 0 0 1 27.178667-32.64l2.986666 2.474667 33.834667 33.792 76.458667-76.458667a21.333333 21.333333 0 0 1 30.208 0z" fill="#2687e9" p-id="17375"></path>
</svg>
