<?xml version="1.0" standalone="no"?><!DOCTYPE svg PUBLIC "-//W3C//DTD SVG 1.1//EN" "http://www.w3.org/Graphics/SVG/1.1/DTD/svg11.dtd">
<svg t="1662309732984" class="icon" viewBox="0 0 1024 1024" version="1.1"
    xmlns="http://www.w3.org/2000/svg" p-id="28483"
    xmlns:xlink="http://www.w3.org/1999/xlink" width="200" height="200">
    <path d="M1001.946877 1001.946877H22.053123V22.053123h979.893754v979.893754" fill="#FFFFFF" p-id="28484"></path>
    <path d="M1001.946877 233.027997H22.053123V22.053123h979.893754v210.974874" fill="#2687e9" p-id="28485"></path>
    <path d="M1001.946877 1024H22.053123c-12.49677 0-22.053123-9.556353-22.053123-22.053123V22.053123c0-12.49677 9.556353-22.053123 22.053123-22.053123h979.893754c12.49677 0 22.053123 9.556353 22.053123 22.053123v979.893754c0 12.49677-9.556353 22.053123-22.053123 22.053123zM44.106246 979.893754h935.787508V44.106246H44.106246v935.787508z" fill="#2687e9" p-id="28486"></path>
    <path d="M559.414214 727.017947h330.796841v147.020818h-330.796841z" fill="#2687e9" p-id="28487"></path>
    <path d="M138.199569 727.017947h330.796842v147.020818h-330.796842z" fill="#2687e9" p-id="28488"></path>
    <path d="M863.012204 118.351759m-61.748744 0a61.748744 61.748744 0 1 0 123.497488 0 61.748744 61.748744 0 1 0-123.497488 0Z" fill="#FFFFFF" p-id="28489"></path>
</svg>