<?xml version="1.0" standalone="no"?><!DOCTYPE svg PUBLIC "-//W3C//DTD SVG 1.1//EN" "http://www.w3.org/Graphics/SVG/1.1/DTD/svg11.dtd"><svg t="1662271395026" class="icon" viewBox="0 0 1024 1024" version="1.1" xmlns="http://www.w3.org/2000/svg" p-id="5844" xmlns:xlink="http://www.w3.org/1999/xlink" width="200" height="200"><path d="M63.773466 460.925764l448.131367 0L511.904833 62.58643 63.773466 62.58643 63.773466 460.925764zM113.565499 112.379487l348.546278 0 0 298.754245L113.565499 411.133731 113.565499 112.379487z" p-id="5845"></path><path d="M561.696866 958.850188l398.339334 0 0-298.754245L561.696866 660.095943 561.696866 958.850188zM611.489922 709.887976l298.754245 0L910.244166 909.057131l-298.754245 0L611.489922 709.887976z" p-id="5846"></path><path d="M561.696866 62.58643 561.696866 610.302887l398.339334 0L960.036199 62.58643 561.696866 62.58643zM910.244166 560.510854l-298.754245 0L611.489922 112.379487l298.754245 0L910.244166 560.510854z" p-id="5847"></path><path d="M63.773466 958.850188l448.131367 0L511.904833 510.718821 63.773466 510.718821 63.773466 958.850188zM113.565499 560.510854l348.546278 0L462.111776 909.057131 113.565499 909.057131 113.565499 560.510854z" p-id="5848"></path></svg>