<?xml version="1.0" standalone="no"?><!DOCTYPE svg PUBLIC "-//W3C//DTD SVG 1.1//EN" "http://www.w3.org/Graphics/SVG/1.1/DTD/svg11.dtd"><svg t="1662309111947" class="icon" viewBox="0 0 1024 1024" version="1.1" xmlns="http://www.w3.org/2000/svg" p-id="8171" xmlns:xlink="http://www.w3.org/1999/xlink" width="200" height="200"><path d="M369.92 256a232.96 232.96 0 0 0 0 466.56H704A232.96 232.96 0 0 0 704 256z m0-64H704a300.16 300.16 0 0 1 0 600.32H369.92a300.16 300.16 0 0 1 0-600.32zM704 592a98.56 98.56 0 0 0 49.28-16 96.64 96.64 0 0 0 35.84-36.48 100.48 100.48 0 0 0 0-99.84 96.64 96.64 0 0 0-35.84-36.48A99.84 99.84 0 1 0 704 592z m0 64a167.04 167.04 0 1 1 117.76-48.64 166.4 166.4 0 0 1-117.76 51.2z" p-id="8172" fill="#2687e9"></path></svg>